<svg xmlns="http://www.w3.org/2000/svg" version="1" x="0" y="0" width="512" height="512" viewBox="0 0 512 512">
  <g class="root">
    <path d="M256 90c44 0 86 17 117 49C405 170 422 212 422 256s-17 86-49 117C342 405 300 422 256 422c-44 0-86-17-117-49S90 300 90 256s17-86 49-117S212 90 256 90zM256 50C142 50 50 142 50 256s92 206 206 206 206-92 206-206S370 50 256 50zM194 256c0 17-14 31-31 31 -17 0-31-14-31-31 0-17 14-31 31-31C180 225 194 239 194 256zM256 225c-17 0-31 14-31 31 0 17 14 31 31 31 17 0 31-14 31-31C287 239 273 225 256 225zM349 225c-17 0-31 14-31 31 0 17 14 31 31 31 17 0 31-14 31-31C380 239 366 225 349 225z"/>
  </g>
</svg>
